<mxfile host="app.diagrams.net" modified="2022-03-14T01:41:39.556Z" agent="5.0 (Windows NT 10.0; Win64; x64) AppleWebKit/537.36 (KHTML, like Gecko) Chrome/99.0.4844.51 Safari/537.36 Edg/99.0.1150.39" etag="Ir4hAHs_-MYfugc7ci5N" version="17.1.2" type="github" pages="4">
  <diagram id="ZjF1vEhpAJn6_0iS25MF" name="Page-1">
    <mxGraphModel dx="3160" dy="1764" grid="1" gridSize="10" guides="1" tooltips="1" connect="1" arrows="1" fold="1" page="1" pageScale="1" pageWidth="850" pageHeight="1100" math="0" shadow="0">
      <root>
        <mxCell id="0" />
        <mxCell id="1" parent="0" />
        <mxCell id="7u-PBe20e4k7lC3ikwnG-12" value="" style="strokeWidth=1;shadow=0;dashed=0;align=center;html=1;shape=mxgraph.mockup.containers.browserWindow;rSize=0;strokeColor=#666666;strokeColor2=#008cff;strokeColor3=#c4c4c4;mainText=,;recursiveResize=0;fillColor=#f5f5f5;fontColor=#333333;" vertex="1" parent="1">
          <mxGeometry x="180" y="450" width="1920" height="1080" as="geometry" />
        </mxCell>
        <mxCell id="7u-PBe20e4k7lC3ikwnG-13" value="Page 1" style="strokeWidth=1;shadow=0;dashed=0;align=center;html=1;shape=mxgraph.mockup.containers.anchor;fontSize=17;fontColor=#666666;align=left;" vertex="1" parent="7u-PBe20e4k7lC3ikwnG-12">
          <mxGeometry x="60" y="12" width="110" height="26" as="geometry" />
        </mxCell>
        <mxCell id="7u-PBe20e4k7lC3ikwnG-14" value="https://www.draw.io" style="strokeWidth=1;shadow=0;dashed=0;align=center;html=1;shape=mxgraph.mockup.containers.anchor;rSize=0;fontSize=17;fontColor=#666666;align=left;" vertex="1" parent="7u-PBe20e4k7lC3ikwnG-12">
          <mxGeometry x="130" y="60" width="250" height="26" as="geometry" />
        </mxCell>
        <mxCell id="7u-PBe20e4k7lC3ikwnG-15" value="" style="rounded=0;whiteSpace=wrap;html=1;" vertex="1" parent="7u-PBe20e4k7lC3ikwnG-12">
          <mxGeometry y="110" width="1920" height="80" as="geometry" />
        </mxCell>
        <mxCell id="7u-PBe20e4k7lC3ikwnG-16" value="" style="rounded=0;whiteSpace=wrap;html=1;" vertex="1" parent="7u-PBe20e4k7lC3ikwnG-12">
          <mxGeometry y="960" width="1920" height="120" as="geometry" />
        </mxCell>
        <mxCell id="7u-PBe20e4k7lC3ikwnG-18" value="" style="rounded=0;whiteSpace=wrap;html=1;" vertex="1" parent="7u-PBe20e4k7lC3ikwnG-12">
          <mxGeometry x="580" y="360" width="760" height="360" as="geometry" />
        </mxCell>
        <mxCell id="7u-PBe20e4k7lC3ikwnG-19" value="" style="rounded=0;whiteSpace=wrap;html=1;" vertex="1" parent="7u-PBe20e4k7lC3ikwnG-12">
          <mxGeometry x="670" y="410" width="590" height="60" as="geometry" />
        </mxCell>
        <mxCell id="7u-PBe20e4k7lC3ikwnG-20" value="" style="rounded=0;whiteSpace=wrap;html=1;" vertex="1" parent="7u-PBe20e4k7lC3ikwnG-12">
          <mxGeometry x="670" y="500" width="590" height="60" as="geometry" />
        </mxCell>
        <mxCell id="7u-PBe20e4k7lC3ikwnG-21" value="" style="rounded=1;whiteSpace=wrap;html=1;" vertex="1" parent="7u-PBe20e4k7lC3ikwnG-12">
          <mxGeometry x="890" y="580" width="120" height="60" as="geometry" />
        </mxCell>
        <mxCell id="7u-PBe20e4k7lC3ikwnG-22" value="Text" style="text;html=1;strokeColor=none;fillColor=none;align=center;verticalAlign=middle;whiteSpace=wrap;rounded=0;" vertex="1" parent="7u-PBe20e4k7lC3ikwnG-12">
          <mxGeometry x="930" y="660" width="60" height="30" as="geometry" />
        </mxCell>
        <mxCell id="7u-PBe20e4k7lC3ikwnG-24" value="Text" style="text;html=1;strokeColor=none;fillColor=none;align=center;verticalAlign=middle;whiteSpace=wrap;rounded=0;" vertex="1" parent="7u-PBe20e4k7lC3ikwnG-12">
          <mxGeometry x="910" y="525" width="60" height="30" as="geometry" />
        </mxCell>
        <mxCell id="7u-PBe20e4k7lC3ikwnG-23" value="Text" style="text;html=1;strokeColor=none;fillColor=none;align=center;verticalAlign=middle;whiteSpace=wrap;rounded=0;" vertex="1" parent="7u-PBe20e4k7lC3ikwnG-12">
          <mxGeometry x="910" y="425" width="60" height="30" as="geometry" />
        </mxCell>
        <mxCell id="7u-PBe20e4k7lC3ikwnG-27" value="Text" style="text;html=1;strokeColor=none;fillColor=none;align=center;verticalAlign=middle;whiteSpace=wrap;rounded=0;" vertex="1" parent="7u-PBe20e4k7lC3ikwnG-12">
          <mxGeometry x="270" y="135" width="60" height="30" as="geometry" />
        </mxCell>
        <mxCell id="7u-PBe20e4k7lC3ikwnG-29" value="" style="strokeWidth=1;shadow=0;dashed=0;align=center;html=1;shape=mxgraph.mockup.containers.browserWindow;rSize=0;strokeColor=#666666;strokeColor2=#008cff;strokeColor3=#c4c4c4;mainText=,;recursiveResize=0;fillColor=#f5f5f5;fontColor=#333333;" vertex="1" parent="1">
          <mxGeometry x="190" y="460" width="1920" height="1080" as="geometry" />
        </mxCell>
        <mxCell id="7u-PBe20e4k7lC3ikwnG-30" value="Page 1" style="strokeWidth=1;shadow=0;dashed=0;align=center;html=1;shape=mxgraph.mockup.containers.anchor;fontSize=17;fontColor=#666666;align=left;" vertex="1" parent="7u-PBe20e4k7lC3ikwnG-29">
          <mxGeometry x="60" y="12" width="110" height="26" as="geometry" />
        </mxCell>
        <mxCell id="7u-PBe20e4k7lC3ikwnG-31" value="https://www.draw.io" style="strokeWidth=1;shadow=0;dashed=0;align=center;html=1;shape=mxgraph.mockup.containers.anchor;rSize=0;fontSize=17;fontColor=#666666;align=left;" vertex="1" parent="7u-PBe20e4k7lC3ikwnG-29">
          <mxGeometry x="130" y="60" width="250" height="26" as="geometry" />
        </mxCell>
        <mxCell id="7u-PBe20e4k7lC3ikwnG-32" value="" style="rounded=0;whiteSpace=wrap;html=1;" vertex="1" parent="7u-PBe20e4k7lC3ikwnG-29">
          <mxGeometry y="110" width="1920" height="80" as="geometry" />
        </mxCell>
        <mxCell id="7u-PBe20e4k7lC3ikwnG-33" value="" style="rounded=0;whiteSpace=wrap;html=1;" vertex="1" parent="7u-PBe20e4k7lC3ikwnG-29">
          <mxGeometry y="960" width="1920" height="120" as="geometry" />
        </mxCell>
        <mxCell id="7u-PBe20e4k7lC3ikwnG-34" value="" style="rounded=0;whiteSpace=wrap;html=1;" vertex="1" parent="7u-PBe20e4k7lC3ikwnG-29">
          <mxGeometry x="580" y="360" width="760" height="360" as="geometry" />
        </mxCell>
        <mxCell id="7u-PBe20e4k7lC3ikwnG-35" value="" style="rounded=0;whiteSpace=wrap;html=1;" vertex="1" parent="7u-PBe20e4k7lC3ikwnG-29">
          <mxGeometry x="670" y="410" width="590" height="60" as="geometry" />
        </mxCell>
        <mxCell id="7u-PBe20e4k7lC3ikwnG-36" value="" style="rounded=0;whiteSpace=wrap;html=1;" vertex="1" parent="7u-PBe20e4k7lC3ikwnG-29">
          <mxGeometry x="670" y="500" width="590" height="60" as="geometry" />
        </mxCell>
        <mxCell id="7u-PBe20e4k7lC3ikwnG-37" value="" style="rounded=1;whiteSpace=wrap;html=1;" vertex="1" parent="7u-PBe20e4k7lC3ikwnG-29">
          <mxGeometry x="890" y="580" width="120" height="60" as="geometry" />
        </mxCell>
        <mxCell id="7u-PBe20e4k7lC3ikwnG-38" value="Text" style="text;html=1;strokeColor=none;fillColor=none;align=center;verticalAlign=middle;whiteSpace=wrap;rounded=0;" vertex="1" parent="7u-PBe20e4k7lC3ikwnG-29">
          <mxGeometry x="920" y="595" width="60" height="30" as="geometry" />
        </mxCell>
        <mxCell id="7u-PBe20e4k7lC3ikwnG-39" value="Text" style="text;html=1;strokeColor=none;fillColor=none;align=center;verticalAlign=middle;whiteSpace=wrap;rounded=0;" vertex="1" parent="7u-PBe20e4k7lC3ikwnG-29">
          <mxGeometry x="910" y="525" width="60" height="30" as="geometry" />
        </mxCell>
        <mxCell id="7u-PBe20e4k7lC3ikwnG-40" value="Text" style="text;html=1;strokeColor=none;fillColor=none;align=center;verticalAlign=middle;whiteSpace=wrap;rounded=0;" vertex="1" parent="7u-PBe20e4k7lC3ikwnG-29">
          <mxGeometry x="910" y="425" width="60" height="30" as="geometry" />
        </mxCell>
        <mxCell id="7u-PBe20e4k7lC3ikwnG-41" value="monta" style="text;html=1;strokeColor=none;fillColor=none;align=center;verticalAlign=middle;whiteSpace=wrap;rounded=0;" vertex="1" parent="7u-PBe20e4k7lC3ikwnG-29">
          <mxGeometry x="270" y="135" width="60" height="30" as="geometry" />
        </mxCell>
      </root>
    </mxGraphModel>
  </diagram>
  <diagram name="PÃ¡gina de productos" id="2H4cGxRNlvqEVcQPg_wY">
    <mxGraphModel dx="1157" dy="737" grid="1" gridSize="10" guides="1" tooltips="1" connect="1" arrows="1" fold="1" page="1" pageScale="1" pageWidth="1100" pageHeight="850" background="none" math="0" shadow="0">
      <root>
        <mxCell id="0" />
        <mxCell id="1" parent="0" />
        <mxCell id="7026571954dc6520-1" value="" style="strokeWidth=1;shadow=0;dashed=0;align=center;html=1;shape=mxgraph.mockup.containers.browserWindow;rSize=0;strokeColor=#666666;mainText=,;recursiveResize=0;rounded=0;labelBackgroundColor=none;fontFamily=Verdana;fontSize=12" parent="1" vertex="1">
          <mxGeometry x="30" y="20" width="1050" height="820" as="geometry" />
        </mxCell>
        <mxCell id="7026571954dc6520-2" value="CHEC" style="strokeWidth=1;shadow=0;dashed=0;align=center;html=1;shape=mxgraph.mockup.containers.anchor;fontSize=17;fontColor=#666666;align=left;fontFamily=afterglow regular;fontSource=https%3A%2F%2Ffonts.googleapis.com%2Fcss%3Ffamily%3Dafterglow%2Bregular;" parent="7026571954dc6520-1" vertex="1">
          <mxGeometry x="60" y="12" width="110" height="26" as="geometry" />
        </mxCell>
        <mxCell id="7026571954dc6520-3" value="https://www.default.com" style="strokeWidth=1;shadow=0;dashed=0;align=center;html=1;shape=mxgraph.mockup.containers.anchor;rSize=0;fontSize=17;fontColor=#666666;align=left;" parent="7026571954dc6520-1" vertex="1">
          <mxGeometry x="130" y="60" width="250" height="26" as="geometry" />
        </mxCell>
        <mxCell id="7026571954dc6520-14" value="Search" style="strokeWidth=1;shadow=0;dashed=0;align=center;html=1;shape=mxgraph.mockup.forms.searchBox;strokeColor=#999999;mainText=;strokeColor2=#008cff;fontColor=#666666;fontSize=17;align=left;spacingLeft=3;rounded=0;labelBackgroundColor=none;" parent="7026571954dc6520-1" vertex="1">
          <mxGeometry x="739" y="227" width="220" height="30" as="geometry" />
        </mxCell>
        <mxCell id="7026571954dc6520-15" value="" style="verticalLabelPosition=bottom;shadow=0;dashed=0;align=center;html=1;verticalAlign=top;strokeWidth=1;shape=mxgraph.mockup.markup.line;strokeColor=#999999;rounded=0;labelBackgroundColor=none;fillColor=#ffffff;fontFamily=Verdana;fontSize=12;fontColor=#000000;" parent="7026571954dc6520-1" vertex="1">
          <mxGeometry y="204" width="1050" height="20" as="geometry" />
        </mxCell>
        <mxCell id="5zn2R6NNqI0IbOt4Crco-2" value="&lt;font face=&quot;afterglow regular&quot; data-font-src=&quot;https://fonts.googleapis.com/css?family=afterglow+regular&quot; style=&quot;font-size: 18px&quot;&gt;Nuestros productos&lt;/font&gt;" style="text;html=1;strokeColor=none;fillColor=none;align=center;verticalAlign=middle;whiteSpace=wrap;rounded=0;" vertex="1" parent="7026571954dc6520-1">
          <mxGeometry x="70" y="174" width="235" height="30" as="geometry" />
        </mxCell>
        <mxCell id="5zn2R6NNqI0IbOt4Crco-26" value="" style="group" vertex="1" connectable="0" parent="7026571954dc6520-1">
          <mxGeometry x="118" y="300" width="250" height="290" as="geometry" />
        </mxCell>
        <mxCell id="5zn2R6NNqI0IbOt4Crco-4" value="" style="verticalLabelPosition=bottom;verticalAlign=top;html=1;shape=mxgraph.basic.rect;fillColor2=none;strokeWidth=1;size=20;indent=5;" vertex="1" parent="5zn2R6NNqI0IbOt4Crco-26">
          <mxGeometry y="170" width="250" height="120" as="geometry" />
        </mxCell>
        <mxCell id="7026571954dc6520-7" value="&lt;b&gt;&lt;font face=&quot;afterglow&quot; style=&quot;font-size: 14px&quot;&gt;Nombre de estilo de cerveza&lt;/font&gt;&lt;/b&gt;" style="text;html=1;points=[];align=center;verticalAlign=top;spacingTop=-4;fontSize=12;fontFamily=Verdana;whiteSpace=wrap;" parent="5zn2R6NNqI0IbOt4Crco-26" vertex="1">
          <mxGeometry x="5" y="180" width="240" height="22" as="geometry" />
        </mxCell>
        <mxCell id="7026571954dc6520-18" value="Seleccionar" style="strokeWidth=1;shadow=0;dashed=0;align=center;html=1;shape=mxgraph.mockup.buttons.button;strokeColor=#666666;mainText=;buttonStyle=round;fontSize=17;fontStyle=0;fillColor=none;whiteSpace=wrap;rounded=0;labelBackgroundColor=none;" parent="5zn2R6NNqI0IbOt4Crco-26" vertex="1">
          <mxGeometry x="32" y="235" width="190" height="30" as="geometry" />
        </mxCell>
        <mxCell id="5zn2R6NNqI0IbOt4Crco-3" value="" style="verticalLabelPosition=bottom;shadow=0;dashed=0;align=center;html=1;verticalAlign=top;strokeWidth=1;shape=mxgraph.mockup.graphics.simpleIcon;strokeColor=#999999;" vertex="1" parent="5zn2R6NNqI0IbOt4Crco-26">
          <mxGeometry width="250" height="170" as="geometry" />
        </mxCell>
        <mxCell id="5zn2R6NNqI0IbOt4Crco-5" value="&lt;b&gt;&lt;font face=&quot;afterglow&quot; style=&quot;font-size: 14px&quot;&gt;$ 200&amp;nbsp;&lt;/font&gt;&lt;/b&gt;" style="text;html=1;points=[];align=center;verticalAlign=top;spacingTop=-4;fontSize=12;fontFamily=Verdana;whiteSpace=wrap;" vertex="1" parent="5zn2R6NNqI0IbOt4Crco-26">
          <mxGeometry x="5" y="205" width="240" height="22" as="geometry" />
        </mxCell>
        <mxCell id="5zn2R6NNqI0IbOt4Crco-31" value="" style="group" vertex="1" connectable="0" parent="7026571954dc6520-1">
          <mxGeometry x="412.5" y="300" width="250" height="290" as="geometry" />
        </mxCell>
        <mxCell id="5zn2R6NNqI0IbOt4Crco-11" value="" style="verticalLabelPosition=bottom;verticalAlign=top;html=1;shape=mxgraph.basic.rect;fillColor2=none;strokeWidth=1;size=20;indent=5;" vertex="1" parent="5zn2R6NNqI0IbOt4Crco-31">
          <mxGeometry y="170" width="250" height="120" as="geometry" />
        </mxCell>
        <mxCell id="5zn2R6NNqI0IbOt4Crco-12" value="&lt;b&gt;&lt;font face=&quot;afterglow&quot; style=&quot;font-size: 14px&quot;&gt;IPA&lt;/font&gt;&lt;/b&gt;" style="text;html=1;points=[];align=center;verticalAlign=top;spacingTop=-4;fontSize=12;fontFamily=Verdana;whiteSpace=wrap;" vertex="1" parent="5zn2R6NNqI0IbOt4Crco-31">
          <mxGeometry x="5" y="180" width="240" height="22" as="geometry" />
        </mxCell>
        <mxCell id="5zn2R6NNqI0IbOt4Crco-13" value="Seleccionar" style="strokeWidth=1;shadow=0;dashed=0;align=center;html=1;shape=mxgraph.mockup.buttons.button;strokeColor=#666666;mainText=;buttonStyle=round;fontSize=17;fontStyle=0;fillColor=none;whiteSpace=wrap;rounded=0;labelBackgroundColor=none;" vertex="1" parent="5zn2R6NNqI0IbOt4Crco-31">
          <mxGeometry x="32" y="235" width="190" height="30" as="geometry" />
        </mxCell>
        <mxCell id="5zn2R6NNqI0IbOt4Crco-14" value="" style="verticalLabelPosition=bottom;shadow=0;dashed=0;align=center;html=1;verticalAlign=top;strokeWidth=1;shape=mxgraph.mockup.graphics.simpleIcon;strokeColor=#999999;" vertex="1" parent="5zn2R6NNqI0IbOt4Crco-31">
          <mxGeometry width="250" height="170" as="geometry" />
        </mxCell>
        <mxCell id="5zn2R6NNqI0IbOt4Crco-15" value="&lt;b&gt;&lt;font face=&quot;afterglow&quot; style=&quot;font-size: 14px&quot;&gt;$ 250&amp;nbsp;&lt;/font&gt;&lt;/b&gt;" style="text;html=1;points=[];align=center;verticalAlign=top;spacingTop=-4;fontSize=12;fontFamily=Verdana;whiteSpace=wrap;" vertex="1" parent="5zn2R6NNqI0IbOt4Crco-31">
          <mxGeometry x="5" y="205" width="240" height="22" as="geometry" />
        </mxCell>
        <mxCell id="5zn2R6NNqI0IbOt4Crco-32" value="" style="group" vertex="1" connectable="0" parent="7026571954dc6520-1">
          <mxGeometry x="412.5" y="620" width="250" height="200" as="geometry" />
        </mxCell>
        <mxCell id="5zn2R6NNqI0IbOt4Crco-27" value="" style="verticalLabelPosition=bottom;verticalAlign=top;html=1;shape=mxgraph.basic.rect;fillColor2=none;strokeWidth=1;size=20;indent=5;" vertex="1" parent="5zn2R6NNqI0IbOt4Crco-32">
          <mxGeometry y="170" width="250" height="30" as="geometry" />
        </mxCell>
        <mxCell id="5zn2R6NNqI0IbOt4Crco-10" value="" style="verticalLabelPosition=bottom;shadow=0;dashed=0;align=center;html=1;verticalAlign=top;strokeWidth=1;shape=mxgraph.mockup.graphics.simpleIcon;strokeColor=#999999;" vertex="1" parent="5zn2R6NNqI0IbOt4Crco-32">
          <mxGeometry width="250" height="170" as="geometry" />
        </mxCell>
        <mxCell id="5zn2R6NNqI0IbOt4Crco-16" value="&lt;b&gt;&lt;font face=&quot;afterglow&quot; style=&quot;font-size: 14px&quot;&gt;Honey&lt;/font&gt;&lt;/b&gt;" style="text;html=1;points=[];align=center;verticalAlign=top;spacingTop=-4;fontSize=12;fontFamily=Verdana;whiteSpace=wrap;" vertex="1" parent="5zn2R6NNqI0IbOt4Crco-32">
          <mxGeometry x="5" y="174" width="240" height="22" as="geometry" />
        </mxCell>
        <mxCell id="5zn2R6NNqI0IbOt4Crco-33" value="" style="group" vertex="1" connectable="0" parent="7026571954dc6520-1">
          <mxGeometry x="118" y="620" width="250" height="200" as="geometry" />
        </mxCell>
        <mxCell id="5zn2R6NNqI0IbOt4Crco-34" value="" style="verticalLabelPosition=bottom;verticalAlign=top;html=1;shape=mxgraph.basic.rect;fillColor2=none;strokeWidth=1;size=20;indent=5;" vertex="1" parent="5zn2R6NNqI0IbOt4Crco-33">
          <mxGeometry y="170" width="250" height="30" as="geometry" />
        </mxCell>
        <mxCell id="5zn2R6NNqI0IbOt4Crco-35" value="" style="verticalLabelPosition=bottom;shadow=0;dashed=0;align=center;html=1;verticalAlign=top;strokeWidth=1;shape=mxgraph.mockup.graphics.simpleIcon;strokeColor=#999999;" vertex="1" parent="5zn2R6NNqI0IbOt4Crco-33">
          <mxGeometry width="250" height="170" as="geometry" />
        </mxCell>
        <mxCell id="5zn2R6NNqI0IbOt4Crco-36" value="&lt;b&gt;&lt;font face=&quot;afterglow&quot; style=&quot;font-size: 14px&quot;&gt;Stout&lt;/font&gt;&lt;/b&gt;" style="text;html=1;points=[];align=center;verticalAlign=top;spacingTop=-4;fontSize=12;fontFamily=Verdana;whiteSpace=wrap;" vertex="1" parent="5zn2R6NNqI0IbOt4Crco-33">
          <mxGeometry x="5" y="174" width="240" height="22" as="geometry" />
        </mxCell>
        <mxCell id="5zn2R6NNqI0IbOt4Crco-37" value="" style="group" vertex="1" connectable="0" parent="7026571954dc6520-1">
          <mxGeometry x="710" y="300" width="250" height="290" as="geometry" />
        </mxCell>
        <mxCell id="5zn2R6NNqI0IbOt4Crco-38" value="" style="verticalLabelPosition=bottom;verticalAlign=top;html=1;shape=mxgraph.basic.rect;fillColor2=none;strokeWidth=1;size=20;indent=5;" vertex="1" parent="5zn2R6NNqI0IbOt4Crco-37">
          <mxGeometry y="170" width="250" height="120" as="geometry" />
        </mxCell>
        <mxCell id="5zn2R6NNqI0IbOt4Crco-39" value="&lt;b&gt;&lt;font face=&quot;afterglow&quot; style=&quot;font-size: 14px&quot;&gt;Golden Ale&lt;/font&gt;&lt;/b&gt;" style="text;html=1;points=[];align=center;verticalAlign=top;spacingTop=-4;fontSize=12;fontFamily=Verdana;whiteSpace=wrap;" vertex="1" parent="5zn2R6NNqI0IbOt4Crco-37">
          <mxGeometry x="5" y="180" width="240" height="22" as="geometry" />
        </mxCell>
        <mxCell id="5zn2R6NNqI0IbOt4Crco-40" value="Seleccionar" style="strokeWidth=1;shadow=0;dashed=0;align=center;html=1;shape=mxgraph.mockup.buttons.button;strokeColor=#666666;mainText=;buttonStyle=round;fontSize=17;fontStyle=0;fillColor=none;whiteSpace=wrap;rounded=0;labelBackgroundColor=none;" vertex="1" parent="5zn2R6NNqI0IbOt4Crco-37">
          <mxGeometry x="32" y="235" width="190" height="30" as="geometry" />
        </mxCell>
        <mxCell id="5zn2R6NNqI0IbOt4Crco-41" value="" style="verticalLabelPosition=bottom;shadow=0;dashed=0;align=center;html=1;verticalAlign=top;strokeWidth=1;shape=mxgraph.mockup.graphics.simpleIcon;strokeColor=#999999;" vertex="1" parent="5zn2R6NNqI0IbOt4Crco-37">
          <mxGeometry width="250" height="170" as="geometry" />
        </mxCell>
        <mxCell id="5zn2R6NNqI0IbOt4Crco-42" value="&lt;b&gt;&lt;font face=&quot;afterglow&quot; style=&quot;font-size: 14px&quot;&gt;$ 200&amp;nbsp;&lt;/font&gt;&lt;/b&gt;" style="text;html=1;points=[];align=center;verticalAlign=top;spacingTop=-4;fontSize=12;fontFamily=Verdana;whiteSpace=wrap;" vertex="1" parent="5zn2R6NNqI0IbOt4Crco-37">
          <mxGeometry x="5" y="205" width="240" height="22" as="geometry" />
        </mxCell>
        <mxCell id="5zn2R6NNqI0IbOt4Crco-43" value="" style="verticalLabelPosition=bottom;shadow=0;dashed=0;align=center;html=1;verticalAlign=top;strokeWidth=1;shape=mxgraph.mockup.navigation.scrollBar;strokeColor=#999999;barPos=20;fillColor2=#99ddff;strokeColor2=none;direction=north;fontFamily=afterglow regular;fontSource=https%3A%2F%2Ffonts.googleapis.com%2Fcss%3Ffamily%3Dafterglow%2Bregular;fontSize=14;" vertex="1" parent="7026571954dc6520-1">
          <mxGeometry x="1030" y="214" width="20" height="606" as="geometry" />
        </mxCell>
        <mxCell id="1Wk3-KgFrkJWSbFQzVua-1" value="&lt;font face=&quot;afterglow regular&quot; data-font-src=&quot;https://fonts.googleapis.com/css?family=afterglow+regular&quot; style=&quot;font-size: 18px&quot;&gt;Cervezas&lt;/font&gt;" style="text;html=1;strokeColor=none;fillColor=none;align=center;verticalAlign=middle;whiteSpace=wrap;rounded=0;" vertex="1" parent="7026571954dc6520-1">
          <mxGeometry x="310" y="174" width="180" height="30" as="geometry" />
        </mxCell>
        <mxCell id="1Wk3-KgFrkJWSbFQzVua-36" value="&lt;font face=&quot;afterglow regular&quot; data-font-src=&quot;https://fonts.googleapis.com/css?family=afterglow+regular&quot; style=&quot;font-size: 18px&quot;&gt;Packs&lt;/font&gt;" style="text;html=1;strokeColor=none;fillColor=none;align=center;verticalAlign=middle;whiteSpace=wrap;rounded=0;" vertex="1" parent="7026571954dc6520-1">
          <mxGeometry x="490" y="176" width="180" height="30" as="geometry" />
        </mxCell>
        <mxCell id="1Wk3-KgFrkJWSbFQzVua-37" value="&lt;font face=&quot;afterglow regular&quot; data-font-src=&quot;https://fonts.googleapis.com/css?family=afterglow+regular&quot; style=&quot;font-size: 18px&quot;&gt;Merchandizing&lt;/font&gt;" style="text;html=1;strokeColor=none;fillColor=none;align=center;verticalAlign=middle;whiteSpace=wrap;rounded=0;" vertex="1" parent="7026571954dc6520-1">
          <mxGeometry x="680" y="176" width="180" height="30" as="geometry" />
        </mxCell>
        <mxCell id="5zn2R6NNqI0IbOt4Crco-1" value="Header" style="rounded=0;whiteSpace=wrap;html=1;" vertex="1" parent="1">
          <mxGeometry x="30" y="130" width="1050" height="60" as="geometry" />
        </mxCell>
        <mxCell id="mQo3M006h6in_ThDNphb-1" value="" style="group" vertex="1" connectable="0" parent="1">
          <mxGeometry x="740" y="640" width="250" height="200" as="geometry" />
        </mxCell>
        <mxCell id="mQo3M006h6in_ThDNphb-2" value="" style="verticalLabelPosition=bottom;verticalAlign=top;html=1;shape=mxgraph.basic.rect;fillColor2=none;strokeWidth=1;size=20;indent=5;" vertex="1" parent="mQo3M006h6in_ThDNphb-1">
          <mxGeometry y="170" width="250" height="30" as="geometry" />
        </mxCell>
        <mxCell id="mQo3M006h6in_ThDNphb-3" value="" style="verticalLabelPosition=bottom;shadow=0;dashed=0;align=center;html=1;verticalAlign=top;strokeWidth=1;shape=mxgraph.mockup.graphics.simpleIcon;strokeColor=#999999;" vertex="1" parent="mQo3M006h6in_ThDNphb-1">
          <mxGeometry width="250" height="170" as="geometry" />
        </mxCell>
        <mxCell id="mQo3M006h6in_ThDNphb-4" value="&lt;b&gt;&lt;font face=&quot;afterglow&quot; style=&quot;font-size: 14px&quot;&gt;Pack personalizado&lt;/font&gt;&lt;/b&gt;" style="text;html=1;points=[];align=center;verticalAlign=top;spacingTop=-4;fontSize=12;fontFamily=Verdana;whiteSpace=wrap;" vertex="1" parent="mQo3M006h6in_ThDNphb-1">
          <mxGeometry x="5" y="174" width="240" height="22" as="geometry" />
        </mxCell>
      </root>
    </mxGraphModel>
  </diagram>
  <diagram name="Vista-de-producto" id="wCqsR3vvzLnU1g4mU-Cc">
    <mxGraphModel dx="1157" dy="737" grid="1" gridSize="10" guides="1" tooltips="1" connect="1" arrows="1" fold="1" page="1" pageScale="1" pageWidth="1100" pageHeight="850" background="none" math="0" shadow="0">
      <root>
        <mxCell id="0SYGmL3YU3c6QJyu3D19-0" />
        <mxCell id="0SYGmL3YU3c6QJyu3D19-1" parent="0SYGmL3YU3c6QJyu3D19-0" />
        <mxCell id="0SYGmL3YU3c6QJyu3D19-2" value="" style="strokeWidth=1;shadow=0;dashed=0;align=center;html=1;shape=mxgraph.mockup.containers.browserWindow;rSize=0;strokeColor=#666666;mainText=,;recursiveResize=0;rounded=0;labelBackgroundColor=none;fontFamily=afterglow regular;fontSize=12;fontSource=https%3A%2F%2Ffonts.googleapis.com%2Fcss%3Ffamily%3Dafterglow%2Bregular;" vertex="1" parent="0SYGmL3YU3c6QJyu3D19-1">
          <mxGeometry x="30" y="20" width="1050" height="820" as="geometry" />
        </mxCell>
        <mxCell id="0SYGmL3YU3c6QJyu3D19-3" value="CHEC" style="strokeWidth=1;shadow=0;dashed=0;align=center;html=1;shape=mxgraph.mockup.containers.anchor;fontSize=17;fontColor=#666666;align=left;fontFamily=afterglow regular;fontSource=https%3A%2F%2Ffonts.googleapis.com%2Fcss%3Ffamily%3Dafterglow%2Bregular;" vertex="1" parent="0SYGmL3YU3c6QJyu3D19-2">
          <mxGeometry x="60" y="12" width="110" height="26" as="geometry" />
        </mxCell>
        <mxCell id="0SYGmL3YU3c6QJyu3D19-4" value="https://www.default.com" style="strokeWidth=1;shadow=0;dashed=0;align=center;html=1;shape=mxgraph.mockup.containers.anchor;rSize=0;fontSize=17;fontColor=#666666;align=left;" vertex="1" parent="0SYGmL3YU3c6QJyu3D19-2">
          <mxGeometry x="130" y="60" width="250" height="26" as="geometry" />
        </mxCell>
        <mxCell id="0SYGmL3YU3c6QJyu3D19-6" value="" style="verticalLabelPosition=bottom;shadow=0;dashed=0;align=center;html=1;verticalAlign=top;strokeWidth=1;shape=mxgraph.mockup.markup.line;strokeColor=#999999;rounded=0;labelBackgroundColor=none;fillColor=#ffffff;fontFamily=Verdana;fontSize=12;fontColor=#000000;" vertex="1" parent="0SYGmL3YU3c6QJyu3D19-2">
          <mxGeometry y="204" width="1050" height="20" as="geometry" />
        </mxCell>
        <mxCell id="0SYGmL3YU3c6QJyu3D19-7" value="&lt;font face=&quot;afterglow regular&quot; data-font-src=&quot;https://fonts.googleapis.com/css?family=afterglow+regular&quot; style=&quot;font-size: 18px&quot;&gt;Cervezas&lt;/font&gt;" style="text;html=1;strokeColor=none;fillColor=none;align=center;verticalAlign=middle;whiteSpace=wrap;rounded=0;" vertex="1" parent="0SYGmL3YU3c6QJyu3D19-2">
          <mxGeometry x="420" y="178" width="235" height="30" as="geometry" />
        </mxCell>
        <mxCell id="0SYGmL3YU3c6QJyu3D19-10" value="&lt;b style=&quot;font-size: 17px&quot;&gt;&lt;font face=&quot;afterglow&quot; style=&quot;font-size: 17px&quot;&gt;Stout&lt;/font&gt;&lt;/b&gt;" style="text;html=1;points=[];align=left;verticalAlign=top;spacingTop=-4;fontSize=17;fontFamily=Verdana;whiteSpace=wrap;" vertex="1" parent="0SYGmL3YU3c6QJyu3D19-2">
          <mxGeometry x="488" y="254" width="453" height="30" as="geometry" />
        </mxCell>
        <mxCell id="0SYGmL3YU3c6QJyu3D19-11" value="Comprar" style="strokeWidth=1;shadow=0;dashed=0;align=center;html=1;shape=mxgraph.mockup.buttons.button;strokeColor=#666666;mainText=;buttonStyle=round;fontSize=17;fontStyle=0;fillColor=#f5f5f5;whiteSpace=wrap;rounded=0;labelBackgroundColor=none;fontFamily=afterglow regular;fontSource=https%3A%2F%2Ffonts.googleapis.com%2Fcss%3Ffamily%3Dafterglow%2Bregular;fontColor=#333333;" vertex="1" parent="0SYGmL3YU3c6QJyu3D19-2">
          <mxGeometry x="501" y="660" width="190" height="30" as="geometry" />
        </mxCell>
        <mxCell id="0SYGmL3YU3c6QJyu3D19-12" value="" style="verticalLabelPosition=bottom;shadow=0;dashed=0;align=center;html=1;verticalAlign=top;strokeWidth=1;shape=mxgraph.mockup.graphics.simpleIcon;strokeColor=#999999;" vertex="1" parent="0SYGmL3YU3c6QJyu3D19-2">
          <mxGeometry x="99" y="254" width="330" height="330" as="geometry" />
        </mxCell>
        <mxCell id="0SYGmL3YU3c6QJyu3D19-37" value="Agregar al carrito" style="strokeWidth=1;shadow=0;dashed=0;align=center;html=1;shape=mxgraph.mockup.buttons.button;strokeColor=#666666;mainText=;buttonStyle=round;fontSize=17;fontStyle=0;fillColor=#f5f5f5;whiteSpace=wrap;rounded=0;labelBackgroundColor=none;fontFamily=afterglow regular;fontSource=https%3A%2F%2Ffonts.googleapis.com%2Fcss%3Ffamily%3Dafterglow%2Bregular;fontColor=#333333;" vertex="1" parent="0SYGmL3YU3c6QJyu3D19-2">
          <mxGeometry x="721" y="660" width="190" height="30" as="geometry" />
        </mxCell>
        <mxCell id="0SYGmL3YU3c6QJyu3D19-40" value="Cerveza negra con notas a cafÃ© y chocolate levemente lupulada y moderada en alcohol." style="text;html=1;strokeColor=none;fillColor=none;align=left;verticalAlign=middle;whiteSpace=wrap;rounded=0;fontFamily=afterglow regular;fontSource=https%3A%2F%2Ffonts.googleapis.com%2Fcss%3Ffamily%3Dafterglow%2Bregular;fontSize=17;" vertex="1" parent="0SYGmL3YU3c6QJyu3D19-2">
          <mxGeometry x="488" y="284" width="442" height="50" as="geometry" />
        </mxCell>
        <mxCell id="0SYGmL3YU3c6QJyu3D19-41" value="&lt;p style=&quot;box-sizing: border-box ; overflow-wrap: break-word ; margin: 0px 0px 15px ; background-color: rgb(255 , 255 , 255) ; font-size: 13px&quot;&gt;&lt;font style=&quot;font-size: 13px&quot;&gt;&lt;span style=&quot;box-sizing: border-box ; font-weight: 700&quot;&gt;Amargor:&amp;nbsp;&lt;/span&gt;30%&lt;/font&gt;&lt;/p&gt;&lt;p style=&quot;box-sizing: border-box ; overflow-wrap: break-word ; margin: 0px 0px 15px ; background-color: rgb(255 , 255 , 255) ; font-size: 13px&quot;&gt;&lt;font style=&quot;font-size: 13px&quot;&gt;&lt;span style=&quot;box-sizing: border-box ; font-weight: 700&quot;&gt;Alcohol:&amp;nbsp;&lt;/span&gt;6 V/V&lt;/font&gt;&lt;/p&gt;&lt;p style=&quot;box-sizing: border-box ; overflow-wrap: break-word ; margin: 0px 0px 15px ; background-color: rgb(255 , 255 , 255) ; font-size: 13px&quot;&gt;&lt;font style=&quot;font-size: 13px&quot;&gt;&lt;span style=&quot;box-sizing: border-box ; font-weight: 700&quot;&gt;Color: 3&lt;/span&gt;5 SRM&lt;/font&gt;&lt;/p&gt;&lt;p style=&quot;box-sizing: border-box ; overflow-wrap: break-word ; margin: 0px ; background-color: rgb(255 , 255 , 255) ; font-size: 13px&quot;&gt;&lt;font style=&quot;font-size: 13px&quot;&gt;&lt;span style=&quot;box-sizing: border-box ; font-weight: 700&quot;&gt;LÃºpulo/s:&amp;nbsp;&lt;/span&gt;Cascade&lt;/font&gt;&lt;/p&gt;" style="text;html=1;strokeColor=none;fillColor=none;align=left;verticalAlign=middle;whiteSpace=wrap;rounded=0;fontFamily=afterglow regular;fontSource=https%3A%2F%2Ffonts.googleapis.com%2Fcss%3Ffamily%3Dafterglow%2Bregular;fontSize=17;fontColor=#000000;" vertex="1" parent="0SYGmL3YU3c6QJyu3D19-2">
          <mxGeometry x="490" y="340" width="310" height="120" as="geometry" />
        </mxCell>
        <mxCell id="0SYGmL3YU3c6QJyu3D19-42" value="Footer" style="rounded=0;whiteSpace=wrap;html=1;fontFamily=afterglow regular;fontSource=https%3A%2F%2Ffonts.googleapis.com%2Fcss%3Ffamily%3Dafterglow%2Bregular;fontSize=17;" vertex="1" parent="0SYGmL3YU3c6QJyu3D19-2">
          <mxGeometry y="720" width="1050" height="100" as="geometry" />
        </mxCell>
        <mxCell id="0SYGmL3YU3c6QJyu3D19-53" value="" style="strokeWidth=1;shadow=0;dashed=0;align=center;html=1;shape=mxgraph.mockup.forms.rrect;rSize=0;strokeColor=#999999;fillColor=#ffffff;recursiveResize=0;fontFamily=afterglow regular;fontSource=https%3A%2F%2Ffonts.googleapis.com%2Fcss%3Ffamily%3Dafterglow%2Bregular;fontSize=13;fontColor=#000000;" vertex="1" parent="0SYGmL3YU3c6QJyu3D19-2">
          <mxGeometry x="488" y="475" width="452" height="125" as="geometry" />
        </mxCell>
        <mxCell id="0SYGmL3YU3c6QJyu3D19-63" value="" style="verticalLabelPosition=bottom;verticalAlign=top;html=1;shape=mxgraph.basic.patternFillRect;fillStyle=diag;step=5;fillStrokeWidth=0.2;fillStrokeColor=#dddddd;fontFamily=afterglow regular;fontSource=https%3A%2F%2Ffonts.googleapis.com%2Fcss%3Ffamily%3Dafterglow%2Bregular;fontSize=15;fontColor=#333333;fillColor=#f5f5f5;strokeColor=#B3B3B3;" vertex="1" parent="0SYGmL3YU3c6QJyu3D19-53">
          <mxGeometry y="56" width="450" height="36" as="geometry" />
        </mxCell>
        <mxCell id="0SYGmL3YU3c6QJyu3D19-54" value="Botella 500 ml" style="strokeWidth=1;shadow=0;dashed=0;align=center;html=1;shape=mxgraph.mockup.forms.rrect;rSize=0;fillColor=#eeeeee;strokeColor=#999999;gradientColor=#cccccc;align=left;spacingLeft=4;fontSize=17;fontColor=#666666;labelPosition=right;fontFamily=afterglow regular;fontSource=https%3A%2F%2Ffonts.googleapis.com%2Fcss%3Ffamily%3Dafterglow%2Bregular;" vertex="1" parent="0SYGmL3YU3c6QJyu3D19-53">
          <mxGeometry x="8" y="7.5" width="15" height="15" as="geometry" />
        </mxCell>
        <mxCell id="0SYGmL3YU3c6QJyu3D19-55" value="Botella 1 lt" style="strokeWidth=1;shadow=0;dashed=0;align=center;html=1;shape=mxgraph.mockup.forms.rrect;rSize=0;fillColor=#eeeeee;strokeColor=#999999;gradientColor=#cccccc;align=left;spacingLeft=4;fontSize=17;fontColor=#666666;labelPosition=right;fontFamily=afterglow regular;fontSource=https%3A%2F%2Ffonts.googleapis.com%2Fcss%3Ffamily%3Dafterglow%2Bregular;" vertex="1" parent="0SYGmL3YU3c6QJyu3D19-53">
          <mxGeometry x="8" y="37.5" width="15" height="15" as="geometry" />
        </mxCell>
        <mxCell id="0SYGmL3YU3c6QJyu3D19-56" value="Pack x 6&amp;nbsp; 500 ml" style="strokeWidth=1;shadow=0;dashed=0;align=center;html=1;shape=mxgraph.mockup.forms.checkbox;rSize=0;resizable=0;fillColor=#aaaaaa;strokeColor=#444444;gradientColor=#666666;align=left;spacingLeft=4;fontSize=17;fontColor=#008cff;labelPosition=right;fontFamily=afterglow regular;fontSource=https%3A%2F%2Ffonts.googleapis.com%2Fcss%3Ffamily%3Dafterglow%2Bregular;" vertex="1" parent="0SYGmL3YU3c6QJyu3D19-53">
          <mxGeometry x="8" y="67.5" width="15" height="15" as="geometry" />
        </mxCell>
        <mxCell id="0SYGmL3YU3c6QJyu3D19-57" value="Pack x 6 1 lt" style="strokeWidth=1;shadow=0;dashed=0;align=center;html=1;shape=mxgraph.mockup.forms.rrect;rSize=0;fillColor=#eeeeee;strokeColor=#999999;gradientColor=#cccccc;align=left;spacingLeft=4;fontSize=17;fontColor=#666666;labelPosition=right;fontFamily=afterglow regular;fontSource=https%3A%2F%2Ffonts.googleapis.com%2Fcss%3Ffamily%3Dafterglow%2Bregular;" vertex="1" parent="0SYGmL3YU3c6QJyu3D19-53">
          <mxGeometry x="8" y="97.5" width="15" height="15" as="geometry" />
        </mxCell>
        <mxCell id="0SYGmL3YU3c6QJyu3D19-13" value="&lt;b&gt;&lt;font face=&quot;afterglow&quot; style=&quot;font-size: 14px&quot;&gt;$ 1200&amp;nbsp;&lt;/font&gt;&lt;/b&gt;" style="text;html=1;points=[];align=center;verticalAlign=middle;spacingTop=-4;fontSize=12;fontFamily=Verdana;whiteSpace=wrap;" vertex="1" parent="0SYGmL3YU3c6QJyu3D19-53">
          <mxGeometry x="342" y="67.5" width="100" height="20" as="geometry" />
        </mxCell>
        <mxCell id="0SYGmL3YU3c6QJyu3D19-64" value="&lt;font style=&quot;font-size: 14px&quot;&gt;1&lt;/font&gt;" style="strokeWidth=1;shadow=0;dashed=0;align=center;html=1;shape=mxgraph.mockup.forms.spinner;strokeColor=#999999;spinLayout=right;spinStyle=normal;adjStyle=triangle;fillColor=#aaddff;fontSize=17;fontColor=#666666;mainText=;html=1;overflow=fill;fontFamily=afterglow regular;fontSource=https%3A%2F%2Ffonts.googleapis.com%2Fcss%3Ffamily%3Dafterglow%2Bregular;" vertex="1" parent="0SYGmL3YU3c6QJyu3D19-53">
          <mxGeometry x="229" y="60.5" width="102" height="28" as="geometry" />
        </mxCell>
        <mxCell id="0SYGmL3YU3c6QJyu3D19-65" value="" style="verticalLabelPosition=bottom;shadow=0;dashed=0;align=center;html=1;verticalAlign=top;strokeWidth=1;shape=mxgraph.mockup.forms.splitter;strokeColor=#999999;fontFamily=afterglow regular;fontSource=https%3A%2F%2Ffonts.googleapis.com%2Fcss%3Ffamily%3Dafterglow%2Bregular;fontSize=14;fontColor=#000000;" vertex="1" parent="0SYGmL3YU3c6QJyu3D19-2">
          <mxGeometry x="134" y="532.5" width="260" height="10" as="geometry" />
        </mxCell>
        <mxCell id="0SYGmL3YU3c6QJyu3D19-66" value="" style="verticalLabelPosition=bottom;verticalAlign=top;html=1;shape=mxgraph.basic.rect;fillColor2=none;strokeWidth=1;size=20;indent=5;fontFamily=afterglow regular;fontSource=https%3A%2F%2Ffonts.googleapis.com%2Fcss%3Ffamily%3Dafterglow%2Bregular;fontSize=14;fontColor=#333333;fillColor=#f5f5f5;strokeColor=#666666;" vertex="1" parent="0SYGmL3YU3c6QJyu3D19-2">
          <mxGeometry x="488" y="600" width="452" height="40" as="geometry" />
        </mxCell>
        <mxCell id="0SYGmL3YU3c6QJyu3D19-67" value="&lt;b&gt;&lt;font style=&quot;font-size: 17px&quot;&gt;Subtotal&lt;/font&gt;&lt;/b&gt;" style="text;html=1;strokeColor=none;fillColor=none;align=left;verticalAlign=middle;whiteSpace=wrap;rounded=0;fontFamily=afterglow regular;fontSource=https%3A%2F%2Ffonts.googleapis.com%2Fcss%3Ffamily%3Dafterglow%2Bregular;fontSize=14;fontColor=#000000;" vertex="1" parent="0SYGmL3YU3c6QJyu3D19-2">
          <mxGeometry x="496" y="605" width="184" height="30" as="geometry" />
        </mxCell>
        <mxCell id="0SYGmL3YU3c6QJyu3D19-68" value="&lt;b style=&quot;font-size: 18px;&quot;&gt;&lt;font face=&quot;afterglow&quot; style=&quot;font-size: 18px;&quot;&gt;$ 1200&amp;nbsp;&lt;/font&gt;&lt;/b&gt;" style="text;html=1;points=[];align=center;verticalAlign=middle;spacingTop=-4;fontSize=18;fontFamily=Verdana;whiteSpace=wrap;" vertex="1" parent="0SYGmL3YU3c6QJyu3D19-2">
          <mxGeometry x="830" y="610" width="100" height="20" as="geometry" />
        </mxCell>
        <mxCell id="0SYGmL3YU3c6QJyu3D19-35" value="&lt;font face=&quot;afterglow regular&quot; data-font-src=&quot;https://fonts.googleapis.com/css?family=afterglow+regular&quot;&gt;Header&lt;/font&gt;" style="rounded=0;whiteSpace=wrap;html=1;fontSize=17;" vertex="1" parent="0SYGmL3YU3c6QJyu3D19-1">
          <mxGeometry x="30" y="130" width="1050" height="60" as="geometry" />
        </mxCell>
      </root>
    </mxGraphModel>
  </diagram>
  <diagram name="Vista-de-pack-personalizado" id="VFaKMEUCL5EVVUBVy4yj">
    <mxGraphModel dx="1157" dy="737" grid="1" gridSize="10" guides="1" tooltips="1" connect="1" arrows="1" fold="1" page="1" pageScale="1" pageWidth="1100" pageHeight="850" background="none" math="0" shadow="0">
      <root>
        <mxCell id="hxEShJzOfcFDKrOyH3e2-0" />
        <mxCell id="hxEShJzOfcFDKrOyH3e2-1" parent="hxEShJzOfcFDKrOyH3e2-0" />
        <mxCell id="hxEShJzOfcFDKrOyH3e2-2" value="" style="strokeWidth=1;shadow=0;dashed=0;align=center;html=1;shape=mxgraph.mockup.containers.browserWindow;rSize=0;strokeColor=#666666;mainText=,;recursiveResize=0;rounded=0;labelBackgroundColor=none;fontFamily=afterglow regular;fontSize=12;fontSource=https%3A%2F%2Ffonts.googleapis.com%2Fcss%3Ffamily%3Dafterglow%2Bregular;" vertex="1" parent="hxEShJzOfcFDKrOyH3e2-1">
          <mxGeometry x="29" y="20" width="1063.5" height="820" as="geometry" />
        </mxCell>
        <mxCell id="hxEShJzOfcFDKrOyH3e2-3" value="CHEC" style="strokeWidth=1;shadow=0;dashed=0;align=center;html=1;shape=mxgraph.mockup.containers.anchor;fontSize=17;fontColor=#666666;align=left;fontFamily=afterglow regular;fontSource=https%3A%2F%2Ffonts.googleapis.com%2Fcss%3Ffamily%3Dafterglow%2Bregular;" vertex="1" parent="hxEShJzOfcFDKrOyH3e2-2">
          <mxGeometry x="60" y="12" width="110" height="26" as="geometry" />
        </mxCell>
        <mxCell id="hxEShJzOfcFDKrOyH3e2-4" value="https://www.default.com" style="strokeWidth=1;shadow=0;dashed=0;align=center;html=1;shape=mxgraph.mockup.containers.anchor;rSize=0;fontSize=17;fontColor=#666666;align=left;" vertex="1" parent="hxEShJzOfcFDKrOyH3e2-2">
          <mxGeometry x="130" y="60" width="250" height="26" as="geometry" />
        </mxCell>
        <mxCell id="hxEShJzOfcFDKrOyH3e2-5" value="" style="verticalLabelPosition=bottom;shadow=0;dashed=0;align=center;html=1;verticalAlign=top;strokeWidth=1;shape=mxgraph.mockup.markup.line;strokeColor=#999999;rounded=0;labelBackgroundColor=none;fillColor=#ffffff;fontFamily=Verdana;fontSize=12;fontColor=#000000;" vertex="1" parent="hxEShJzOfcFDKrOyH3e2-2">
          <mxGeometry y="204" width="1050" height="20" as="geometry" />
        </mxCell>
        <mxCell id="hxEShJzOfcFDKrOyH3e2-6" value="&lt;font face=&quot;afterglow regular&quot; data-font-src=&quot;https://fonts.googleapis.com/css?family=afterglow+regular&quot; style=&quot;font-size: 18px&quot;&gt;Packs&lt;/font&gt;" style="text;html=1;strokeColor=none;fillColor=none;align=center;verticalAlign=middle;whiteSpace=wrap;rounded=0;" vertex="1" parent="hxEShJzOfcFDKrOyH3e2-2">
          <mxGeometry x="420" y="178" width="235" height="30" as="geometry" />
        </mxCell>
        <mxCell id="hxEShJzOfcFDKrOyH3e2-7" value="&lt;b style=&quot;font-size: 20px;&quot;&gt;&lt;font face=&quot;afterglow&quot; style=&quot;font-size: 20px;&quot;&gt;Pack personalizado&lt;/font&gt;&lt;/b&gt;" style="text;html=1;points=[];align=left;verticalAlign=top;spacingTop=-4;fontSize=20;fontFamily=Verdana;whiteSpace=wrap;" vertex="1" parent="hxEShJzOfcFDKrOyH3e2-2">
          <mxGeometry x="53" y="251" width="453" height="30" as="geometry" />
        </mxCell>
        <mxCell id="hxEShJzOfcFDKrOyH3e2-8" value="Comprar" style="strokeWidth=1;shadow=0;dashed=0;align=center;html=1;shape=mxgraph.mockup.buttons.button;strokeColor=#666666;mainText=;buttonStyle=round;fontSize=17;fontStyle=0;fillColor=#f5f5f5;whiteSpace=wrap;rounded=0;labelBackgroundColor=none;fontFamily=afterglow regular;fontSource=https%3A%2F%2Ffonts.googleapis.com%2Fcss%3Ffamily%3Dafterglow%2Bregular;fontColor=#333333;" vertex="1" parent="hxEShJzOfcFDKrOyH3e2-2">
          <mxGeometry x="501" y="660" width="190" height="30" as="geometry" />
        </mxCell>
        <mxCell id="hxEShJzOfcFDKrOyH3e2-10" value="Agregar al carrito" style="strokeWidth=1;shadow=0;dashed=0;align=center;html=1;shape=mxgraph.mockup.buttons.button;strokeColor=#666666;mainText=;buttonStyle=round;fontSize=17;fontStyle=0;fillColor=#f5f5f5;whiteSpace=wrap;rounded=0;labelBackgroundColor=none;fontFamily=afterglow regular;fontSource=https%3A%2F%2Ffonts.googleapis.com%2Fcss%3Ffamily%3Dafterglow%2Bregular;fontColor=#333333;" vertex="1" parent="hxEShJzOfcFDKrOyH3e2-2">
          <mxGeometry x="721" y="660" width="190" height="30" as="geometry" />
        </mxCell>
        <mxCell id="hxEShJzOfcFDKrOyH3e2-11" value="SeleccionÃ¡ la cantidad y estilo de cerveza que querÃ©s agregar en tu pack." style="text;html=1;strokeColor=none;fillColor=none;align=left;verticalAlign=middle;whiteSpace=wrap;rounded=0;fontFamily=afterglow regular;fontSource=https%3A%2F%2Ffonts.googleapis.com%2Fcss%3Ffamily%3Dafterglow%2Bregular;fontSize=18;" vertex="1" parent="hxEShJzOfcFDKrOyH3e2-2">
          <mxGeometry x="52" y="284" width="388" height="50" as="geometry" />
        </mxCell>
        <mxCell id="hxEShJzOfcFDKrOyH3e2-13" value="Footer" style="rounded=0;whiteSpace=wrap;html=1;fontFamily=afterglow regular;fontSource=https%3A%2F%2Ffonts.googleapis.com%2Fcss%3Ffamily%3Dafterglow%2Bregular;fontSize=17;" vertex="1" parent="hxEShJzOfcFDKrOyH3e2-2">
          <mxGeometry y="720" width="1050" height="100" as="geometry" />
        </mxCell>
        <mxCell id="1mqRzXisLaytSv6vp5uv-19" value="" style="strokeWidth=1;shadow=0;dashed=0;align=center;html=1;shape=mxgraph.mockup.containers.marginRect2;rectMarginTop=32;strokeColor=#666666;gradientColor=none;fontFamily=afterglow regular;fontSource=https%3A%2F%2Ffonts.googleapis.com%2Fcss%3Ffamily%3Dafterglow%2Bregular;fontSize=18;fontColor=#000000;" vertex="1" parent="hxEShJzOfcFDKrOyH3e2-2">
          <mxGeometry x="60" y="436" width="383" height="200" as="geometry" />
        </mxCell>
        <mxCell id="1mqRzXisLaytSv6vp5uv-20" value="500 ml" style="strokeColor=inherit;fillColor=inherit;gradientColor=inherit;strokeWidth=1;shadow=0;dashed=0;align=center;html=1;shape=mxgraph.mockup.containers.rrect;rSize=0;fontSize=17;fontColor=#666666;gradientColor=none;fontFamily=afterglow regular;fontSource=https%3A%2F%2Ffonts.googleapis.com%2Fcss%3Ffamily%3Dafterglow%2Bregular;" vertex="1" parent="1mqRzXisLaytSv6vp5uv-19">
          <mxGeometry width="60" height="25" relative="1" as="geometry">
            <mxPoint x="10" as="offset" />
          </mxGeometry>
        </mxCell>
        <mxCell id="1mqRzXisLaytSv6vp5uv-21" value="1 Lt." style="strokeWidth=1;shadow=0;dashed=0;align=center;html=1;shape=mxgraph.mockup.containers.rrect;rSize=0;fontSize=17;fontColor=#ffffff;strokeColor=#008cff;fillColor=#008cff;fontFamily=afterglow regular;fontSource=https%3A%2F%2Ffonts.googleapis.com%2Fcss%3Ffamily%3Dafterglow%2Bregular;" vertex="1" parent="1mqRzXisLaytSv6vp5uv-19">
          <mxGeometry width="60" height="25" relative="1" as="geometry">
            <mxPoint x="75" as="offset" />
          </mxGeometry>
        </mxCell>
        <mxCell id="1mqRzXisLaytSv6vp5uv-23" value="" style="strokeWidth=1;shadow=0;dashed=0;align=center;html=1;shape=mxgraph.mockup.containers.topButton;rSize=5;strokeColor=#008cff;fillColor=#008cff;gradientColor=none;resizeWidth=1;movable=0;deletable=1;fontFamily=afterglow regular;fontSource=https%3A%2F%2Ffonts.googleapis.com%2Fcss%3Ffamily%3Dafterglow%2Bregular;fontSize=18;fontColor=#000000;" vertex="1" parent="1mqRzXisLaytSv6vp5uv-19">
          <mxGeometry width="383.00000000000006" height="7" relative="1" as="geometry">
            <mxPoint y="25" as="offset" />
          </mxGeometry>
        </mxCell>
        <mxCell id="1mqRzXisLaytSv6vp5uv-0" value="" style="strokeWidth=1;shadow=0;dashed=0;align=center;html=1;shape=mxgraph.mockup.forms.rrect;rSize=0;strokeColor=#FFFFFF;fillColor=#ffffff;recursiveResize=0;fontFamily=afterglow regular;fontSource=https%3A%2F%2Ffonts.googleapis.com%2Fcss%3Ffamily%3Dafterglow%2Bregular;fontSize=18;fontColor=#000000;" vertex="1" parent="1mqRzXisLaytSv6vp5uv-19">
          <mxGeometry x="12.076576576576576" y="45" width="358.8468468468468" height="130" as="geometry" />
        </mxCell>
        <mxCell id="1mqRzXisLaytSv6vp5uv-1" value="Pack x 3&amp;nbsp;" style="shape=ellipse;rSize=0;fillColor=#eeeeee;strokeColor=#999999;gradientColor=#cccccc;html=1;align=left;spacingLeft=4;fontSize=17;fontColor=#666666;labelPosition=right;fontFamily=afterglow regular;fontSource=https%3A%2F%2Ffonts.googleapis.com%2Fcss%3Ffamily%3Dafterglow%2Bregular;" vertex="1" parent="1mqRzXisLaytSv6vp5uv-0">
          <mxGeometry x="6.9009009009009" y="7.5" width="12.939189189189188" height="15" as="geometry" />
        </mxCell>
        <mxCell id="1mqRzXisLaytSv6vp5uv-2" value="Pack x 6" style="shape=ellipse;rSize=0;fillColor=#eeeeee;strokeColor=#999999;gradientColor=#cccccc;html=1;align=left;spacingLeft=4;fontSize=17;fontColor=#666666;labelPosition=right;fontFamily=afterglow regular;fontSource=https%3A%2F%2Ffonts.googleapis.com%2Fcss%3Ffamily%3Dafterglow%2Bregular;" vertex="1" parent="1mqRzXisLaytSv6vp5uv-0">
          <mxGeometry x="6.9009009009009" y="37.5" width="12.939189189189188" height="15" as="geometry" />
        </mxCell>
        <mxCell id="1mqRzXisLaytSv6vp5uv-3" value="Pack x 12&amp;nbsp;" style="shape=ellipse;rSize=0;fillColor=#aaaaaa;strokeColor=#444444;gradientColor=#666666;html=1;align=left;spacingLeft=4;fontSize=17;fontColor=#008cff;labelPosition=right;fontFamily=afterglow regular;fontSource=https%3A%2F%2Ffonts.googleapis.com%2Fcss%3Ffamily%3Dafterglow%2Bregular;" vertex="1" parent="1mqRzXisLaytSv6vp5uv-0">
          <mxGeometry x="6.9009009009009" y="67.5" width="12.939189189189188" height="15" as="geometry" />
        </mxCell>
        <mxCell id="1mqRzXisLaytSv6vp5uv-4" value="" style="shape=ellipse;fillColor=#444444;strokeColor=none;html=1;fontFamily=afterglow regular;fontSource=https%3A%2F%2Ffonts.googleapis.com%2Fcss%3Ffamily%3Dafterglow%2Bregular;fontSize=18;fontColor=#000000;" vertex="1" parent="1mqRzXisLaytSv6vp5uv-3">
          <mxGeometry x="2.5878378378378373" y="3" width="7.763513513513512" height="9" as="geometry" />
        </mxCell>
        <mxCell id="1mqRzXisLaytSv6vp5uv-5" value="Pack x 24&amp;nbsp;" style="shape=ellipse;rSize=0;fillColor=#eeeeee;strokeColor=#999999;gradientColor=#cccccc;html=1;align=left;spacingLeft=4;fontSize=17;fontColor=#666666;labelPosition=right;fontFamily=afterglow regular;fontSource=https%3A%2F%2Ffonts.googleapis.com%2Fcss%3Ffamily%3Dafterglow%2Bregular;" vertex="1" parent="1mqRzXisLaytSv6vp5uv-0">
          <mxGeometry x="6.9009009009009" y="97.5" width="12.939189189189188" height="15" as="geometry" />
        </mxCell>
        <mxCell id="1mqRzXisLaytSv6vp5uv-24" value="" style="rounded=0;whiteSpace=wrap;html=1;fontFamily=afterglow regular;fontSource=https%3A%2F%2Ffonts.googleapis.com%2Fcss%3Ffamily%3Dafterglow%2Bregular;fontSize=18;strokeColor=none;" vertex="1" parent="hxEShJzOfcFDKrOyH3e2-2">
          <mxGeometry x="501" y="240" width="419" height="400" as="geometry" />
        </mxCell>
        <mxCell id="1mqRzXisLaytSv6vp5uv-25" value="ElegÃ­ tu pack" style="text;html=1;strokeColor=none;fillColor=none;align=left;verticalAlign=middle;whiteSpace=wrap;rounded=0;fontFamily=afterglow regular;fontSource=https%3A%2F%2Ffonts.googleapis.com%2Fcss%3Ffamily%3Dafterglow%2Bregular;fontSize=18;fontColor=#000000;fontStyle=1" vertex="1" parent="hxEShJzOfcFDKrOyH3e2-2">
          <mxGeometry x="60" y="390" width="240" height="30" as="geometry" />
        </mxCell>
        <mxCell id="1mqRzXisLaytSv6vp5uv-26" value="ElegÃ­ tus cervezas" style="text;html=1;strokeColor=none;fillColor=none;align=left;verticalAlign=middle;whiteSpace=wrap;rounded=0;fontFamily=afterglow regular;fontSource=https%3A%2F%2Ffonts.googleapis.com%2Fcss%3Ffamily%3Dafterglow%2Bregular;fontSize=18;fontColor=#000000;fontStyle=1" vertex="1" parent="hxEShJzOfcFDKrOyH3e2-2">
          <mxGeometry x="510" y="254" width="240" height="30" as="geometry" />
        </mxCell>
        <mxCell id="1mqRzXisLaytSv6vp5uv-27" value="$ 0,00&amp;nbsp; &amp;nbsp; &amp;nbsp; &lt;font color=&quot;#808080&quot;&gt;(faltan 12 cervezas)&lt;/font&gt;" style="text;html=1;strokeColor=none;fillColor=none;align=left;verticalAlign=middle;whiteSpace=wrap;rounded=0;fontFamily=afterglow regular;fontSource=https%3A%2F%2Ffonts.googleapis.com%2Fcss%3Ffamily%3Dafterglow%2Bregular;fontSize=18;fontColor=#000000;" vertex="1" parent="hxEShJzOfcFDKrOyH3e2-2">
          <mxGeometry x="507.5" y="294" width="262.5" height="30" as="geometry" />
        </mxCell>
        <mxCell id="1mqRzXisLaytSv6vp5uv-28" value="IPA" style="text;html=1;strokeColor=none;fillColor=none;align=left;verticalAlign=middle;whiteSpace=wrap;rounded=0;fontFamily=afterglow regular;fontSource=https%3A%2F%2Ffonts.googleapis.com%2Fcss%3Ffamily%3Dafterglow%2Bregular;fontSize=18;fontColor=#000000;" vertex="1" parent="hxEShJzOfcFDKrOyH3e2-2">
          <mxGeometry x="520" y="359" width="60" height="30" as="geometry" />
        </mxCell>
        <mxCell id="1mqRzXisLaytSv6vp5uv-33" value="Especial 1" style="text;html=1;strokeColor=none;fillColor=none;align=left;verticalAlign=middle;whiteSpace=wrap;rounded=0;fontFamily=afterglow regular;fontSource=https%3A%2F%2Ffonts.googleapis.com%2Fcss%3Ffamily%3Dafterglow%2Bregular;fontSize=18;fontColor=#000000;" vertex="1" parent="hxEShJzOfcFDKrOyH3e2-2">
          <mxGeometry x="520" y="550" width="110" height="30" as="geometry" />
        </mxCell>
        <mxCell id="1mqRzXisLaytSv6vp5uv-32" value="Golden" style="text;html=1;strokeColor=none;fillColor=none;align=left;verticalAlign=middle;whiteSpace=wrap;rounded=0;fontFamily=afterglow regular;fontSource=https%3A%2F%2Ffonts.googleapis.com%2Fcss%3Ffamily%3Dafterglow%2Bregular;fontSize=18;fontColor=#000000;" vertex="1" parent="hxEShJzOfcFDKrOyH3e2-2">
          <mxGeometry x="520" y="510" width="60" height="30" as="geometry" />
        </mxCell>
        <mxCell id="1mqRzXisLaytSv6vp5uv-31" value="Honey" style="text;html=1;strokeColor=none;fillColor=none;align=left;verticalAlign=middle;whiteSpace=wrap;rounded=0;fontFamily=afterglow regular;fontSource=https%3A%2F%2Ffonts.googleapis.com%2Fcss%3Ffamily%3Dafterglow%2Bregular;fontSize=18;fontColor=#000000;" vertex="1" parent="hxEShJzOfcFDKrOyH3e2-2">
          <mxGeometry x="521" y="470" width="60" height="30" as="geometry" />
        </mxCell>
        <mxCell id="1mqRzXisLaytSv6vp5uv-30" value="Stout" style="text;html=1;strokeColor=none;fillColor=none;align=left;verticalAlign=middle;whiteSpace=wrap;rounded=0;fontFamily=afterglow regular;fontSource=https%3A%2F%2Ffonts.googleapis.com%2Fcss%3Ffamily%3Dafterglow%2Bregular;fontSize=18;fontColor=#000000;" vertex="1" parent="hxEShJzOfcFDKrOyH3e2-2">
          <mxGeometry x="520" y="435" width="150" height="30" as="geometry" />
        </mxCell>
        <mxCell id="1mqRzXisLaytSv6vp5uv-29" value="Irish red" style="text;html=1;strokeColor=none;fillColor=none;align=left;verticalAlign=middle;whiteSpace=wrap;rounded=0;fontFamily=afterglow regular;fontSource=https%3A%2F%2Ffonts.googleapis.com%2Fcss%3Ffamily%3Dafterglow%2Bregular;fontSize=18;fontColor=#000000;" vertex="1" parent="hxEShJzOfcFDKrOyH3e2-2">
          <mxGeometry x="520" y="395" width="130" height="30" as="geometry" />
        </mxCell>
        <mxCell id="1mqRzXisLaytSv6vp5uv-34" value="Especial 2" style="text;html=1;strokeColor=none;fillColor=none;align=left;verticalAlign=middle;whiteSpace=wrap;rounded=0;fontFamily=afterglow regular;fontSource=https%3A%2F%2Ffonts.googleapis.com%2Fcss%3Ffamily%3Dafterglow%2Bregular;fontSize=18;fontColor=#000000;" vertex="1" parent="hxEShJzOfcFDKrOyH3e2-2">
          <mxGeometry x="521" y="590" width="110" height="30" as="geometry" />
        </mxCell>
        <mxCell id="1mqRzXisLaytSv6vp5uv-37" value="" style="group" vertex="1" connectable="0" parent="hxEShJzOfcFDKrOyH3e2-2">
          <mxGeometry x="701" y="360" width="85" height="30" as="geometry" />
        </mxCell>
        <mxCell id="1mqRzXisLaytSv6vp5uv-35" value="&amp;nbsp; +&amp;nbsp; &amp;nbsp; &amp;nbsp; &amp;nbsp; &amp;nbsp; &amp;nbsp;-" style="rounded=1;whiteSpace=wrap;html=1;fontFamily=afterglow regular;fontSource=https%3A%2F%2Ffonts.googleapis.com%2Fcss%3Ffamily%3Dafterglow%2Bregular;fontSize=18;fontColor=#000000;strokeColor=#B3B3B3;align=left;" vertex="1" parent="1mqRzXisLaytSv6vp5uv-37">
          <mxGeometry width="85" height="30" as="geometry" />
        </mxCell>
        <mxCell id="1mqRzXisLaytSv6vp5uv-36" value="&lt;font style=&quot;font-size: 15px&quot;&gt;0&lt;/font&gt;" style="rounded=0;whiteSpace=wrap;html=1;fontFamily=afterglow regular;fontSource=https%3A%2F%2Ffonts.googleapis.com%2Fcss%3Ffamily%3Dafterglow%2Bregular;fontSize=18;fontColor=#000000;strokeColor=#B3B3B3;" vertex="1" parent="1mqRzXisLaytSv6vp5uv-37">
          <mxGeometry x="30" width="29" height="29" as="geometry" />
        </mxCell>
        <mxCell id="1mqRzXisLaytSv6vp5uv-46" value="$ 400,00" style="text;html=1;strokeColor=none;fillColor=none;align=right;verticalAlign=middle;whiteSpace=wrap;rounded=0;fontFamily=afterglow regular;fontSource=https%3A%2F%2Ffonts.googleapis.com%2Fcss%3Ffamily%3Dafterglow%2Bregular;fontSize=18;fontColor=#000000;" vertex="1" parent="hxEShJzOfcFDKrOyH3e2-2">
          <mxGeometry x="811" y="359" width="90" height="30" as="geometry" />
        </mxCell>
        <mxCell id="hxEShJzOfcFDKrOyH3e2-26" value="&lt;font face=&quot;afterglow regular&quot; data-font-src=&quot;https://fonts.googleapis.com/css?family=afterglow+regular&quot;&gt;Header&lt;/font&gt;" style="rounded=0;whiteSpace=wrap;html=1;fontSize=17;" vertex="1" parent="hxEShJzOfcFDKrOyH3e2-1">
          <mxGeometry x="30" y="130" width="1050" height="60" as="geometry" />
        </mxCell>
        <mxCell id="1mqRzXisLaytSv6vp5uv-48" value="" style="group" vertex="1" connectable="0" parent="hxEShJzOfcFDKrOyH3e2-1">
          <mxGeometry x="730" y="418" width="85" height="30" as="geometry" />
        </mxCell>
        <mxCell id="1mqRzXisLaytSv6vp5uv-49" value="&amp;nbsp; +&amp;nbsp; &amp;nbsp; &amp;nbsp; &amp;nbsp; &amp;nbsp; &amp;nbsp;-" style="rounded=1;whiteSpace=wrap;html=1;fontFamily=afterglow regular;fontSource=https%3A%2F%2Ffonts.googleapis.com%2Fcss%3Ffamily%3Dafterglow%2Bregular;fontSize=18;fontColor=#000000;strokeColor=#B3B3B3;align=left;" vertex="1" parent="1mqRzXisLaytSv6vp5uv-48">
          <mxGeometry width="85" height="30" as="geometry" />
        </mxCell>
        <mxCell id="1mqRzXisLaytSv6vp5uv-50" value="&lt;font style=&quot;font-size: 15px&quot;&gt;0&lt;/font&gt;" style="rounded=0;whiteSpace=wrap;html=1;fontFamily=afterglow regular;fontSource=https%3A%2F%2Ffonts.googleapis.com%2Fcss%3Ffamily%3Dafterglow%2Bregular;fontSize=18;fontColor=#000000;strokeColor=#B3B3B3;" vertex="1" parent="1mqRzXisLaytSv6vp5uv-48">
          <mxGeometry x="30" width="29" height="29" as="geometry" />
        </mxCell>
        <mxCell id="1mqRzXisLaytSv6vp5uv-51" value="$ 400,00" style="text;html=1;strokeColor=none;fillColor=none;align=right;verticalAlign=middle;whiteSpace=wrap;rounded=0;fontFamily=afterglow regular;fontSource=https%3A%2F%2Ffonts.googleapis.com%2Fcss%3Ffamily%3Dafterglow%2Bregular;fontSize=18;fontColor=#000000;" vertex="1" parent="hxEShJzOfcFDKrOyH3e2-1">
          <mxGeometry x="840" y="417" width="90" height="30" as="geometry" />
        </mxCell>
        <mxCell id="1mqRzXisLaytSv6vp5uv-52" value="" style="group" vertex="1" connectable="0" parent="hxEShJzOfcFDKrOyH3e2-1">
          <mxGeometry x="731" y="457" width="85" height="30" as="geometry" />
        </mxCell>
        <mxCell id="1mqRzXisLaytSv6vp5uv-53" value="&amp;nbsp; +&amp;nbsp; &amp;nbsp; &amp;nbsp; &amp;nbsp; &amp;nbsp; &amp;nbsp;-" style="rounded=1;whiteSpace=wrap;html=1;fontFamily=afterglow regular;fontSource=https%3A%2F%2Ffonts.googleapis.com%2Fcss%3Ffamily%3Dafterglow%2Bregular;fontSize=18;fontColor=#000000;strokeColor=#B3B3B3;align=left;" vertex="1" parent="1mqRzXisLaytSv6vp5uv-52">
          <mxGeometry width="85" height="30" as="geometry" />
        </mxCell>
        <mxCell id="1mqRzXisLaytSv6vp5uv-54" value="&lt;font style=&quot;font-size: 15px&quot;&gt;0&lt;/font&gt;" style="rounded=0;whiteSpace=wrap;html=1;fontFamily=afterglow regular;fontSource=https%3A%2F%2Ffonts.googleapis.com%2Fcss%3Ffamily%3Dafterglow%2Bregular;fontSize=18;fontColor=#000000;strokeColor=#B3B3B3;" vertex="1" parent="1mqRzXisLaytSv6vp5uv-52">
          <mxGeometry x="30" width="29" height="29" as="geometry" />
        </mxCell>
        <mxCell id="1mqRzXisLaytSv6vp5uv-55" value="$ 400,00" style="text;html=1;strokeColor=none;fillColor=none;align=right;verticalAlign=middle;whiteSpace=wrap;rounded=0;fontFamily=afterglow regular;fontSource=https%3A%2F%2Ffonts.googleapis.com%2Fcss%3Ffamily%3Dafterglow%2Bregular;fontSize=18;fontColor=#000000;" vertex="1" parent="hxEShJzOfcFDKrOyH3e2-1">
          <mxGeometry x="841" y="456" width="90" height="30" as="geometry" />
        </mxCell>
        <mxCell id="1mqRzXisLaytSv6vp5uv-56" value="" style="group" vertex="1" connectable="0" parent="hxEShJzOfcFDKrOyH3e2-1">
          <mxGeometry x="732" y="496" width="85" height="30" as="geometry" />
        </mxCell>
        <mxCell id="1mqRzXisLaytSv6vp5uv-57" value="&amp;nbsp; +&amp;nbsp; &amp;nbsp; &amp;nbsp; &amp;nbsp; &amp;nbsp; &amp;nbsp;-" style="rounded=1;whiteSpace=wrap;html=1;fontFamily=afterglow regular;fontSource=https%3A%2F%2Ffonts.googleapis.com%2Fcss%3Ffamily%3Dafterglow%2Bregular;fontSize=18;fontColor=#000000;strokeColor=#B3B3B3;align=left;" vertex="1" parent="1mqRzXisLaytSv6vp5uv-56">
          <mxGeometry width="85" height="30" as="geometry" />
        </mxCell>
        <mxCell id="1mqRzXisLaytSv6vp5uv-58" value="&lt;font style=&quot;font-size: 15px&quot;&gt;0&lt;/font&gt;" style="rounded=0;whiteSpace=wrap;html=1;fontFamily=afterglow regular;fontSource=https%3A%2F%2Ffonts.googleapis.com%2Fcss%3Ffamily%3Dafterglow%2Bregular;fontSize=18;fontColor=#000000;strokeColor=#B3B3B3;" vertex="1" parent="1mqRzXisLaytSv6vp5uv-56">
          <mxGeometry x="30" width="29" height="29" as="geometry" />
        </mxCell>
        <mxCell id="1mqRzXisLaytSv6vp5uv-59" value="$ 400,00" style="text;html=1;strokeColor=none;fillColor=none;align=right;verticalAlign=middle;whiteSpace=wrap;rounded=0;fontFamily=afterglow regular;fontSource=https%3A%2F%2Ffonts.googleapis.com%2Fcss%3Ffamily%3Dafterglow%2Bregular;fontSize=18;fontColor=#000000;" vertex="1" parent="hxEShJzOfcFDKrOyH3e2-1">
          <mxGeometry x="842" y="495" width="90" height="30" as="geometry" />
        </mxCell>
        <mxCell id="1mqRzXisLaytSv6vp5uv-60" value="" style="group" vertex="1" connectable="0" parent="hxEShJzOfcFDKrOyH3e2-1">
          <mxGeometry x="732" y="535" width="85" height="30" as="geometry" />
        </mxCell>
        <mxCell id="1mqRzXisLaytSv6vp5uv-61" value="&amp;nbsp; +&amp;nbsp; &amp;nbsp; &amp;nbsp; &amp;nbsp; &amp;nbsp; &amp;nbsp;-" style="rounded=1;whiteSpace=wrap;html=1;fontFamily=afterglow regular;fontSource=https%3A%2F%2Ffonts.googleapis.com%2Fcss%3Ffamily%3Dafterglow%2Bregular;fontSize=18;fontColor=#000000;strokeColor=#B3B3B3;align=left;" vertex="1" parent="1mqRzXisLaytSv6vp5uv-60">
          <mxGeometry width="85" height="30" as="geometry" />
        </mxCell>
        <mxCell id="1mqRzXisLaytSv6vp5uv-62" value="&lt;font style=&quot;font-size: 15px&quot;&gt;0&lt;/font&gt;" style="rounded=0;whiteSpace=wrap;html=1;fontFamily=afterglow regular;fontSource=https%3A%2F%2Ffonts.googleapis.com%2Fcss%3Ffamily%3Dafterglow%2Bregular;fontSize=18;fontColor=#000000;strokeColor=#B3B3B3;" vertex="1" parent="1mqRzXisLaytSv6vp5uv-60">
          <mxGeometry x="30" width="29" height="29" as="geometry" />
        </mxCell>
        <mxCell id="1mqRzXisLaytSv6vp5uv-63" value="$ 400,00" style="text;html=1;strokeColor=none;fillColor=none;align=right;verticalAlign=middle;whiteSpace=wrap;rounded=0;fontFamily=afterglow regular;fontSource=https%3A%2F%2Ffonts.googleapis.com%2Fcss%3Ffamily%3Dafterglow%2Bregular;fontSize=18;fontColor=#000000;" vertex="1" parent="hxEShJzOfcFDKrOyH3e2-1">
          <mxGeometry x="842" y="534" width="90" height="30" as="geometry" />
        </mxCell>
        <mxCell id="1mqRzXisLaytSv6vp5uv-64" value="" style="group" vertex="1" connectable="0" parent="hxEShJzOfcFDKrOyH3e2-1">
          <mxGeometry x="732" y="571" width="85" height="30" as="geometry" />
        </mxCell>
        <mxCell id="1mqRzXisLaytSv6vp5uv-65" value="&amp;nbsp; +&amp;nbsp; &amp;nbsp; &amp;nbsp; &amp;nbsp; &amp;nbsp; &amp;nbsp;-" style="rounded=1;whiteSpace=wrap;html=1;fontFamily=afterglow regular;fontSource=https%3A%2F%2Ffonts.googleapis.com%2Fcss%3Ffamily%3Dafterglow%2Bregular;fontSize=18;fontColor=#000000;strokeColor=#B3B3B3;align=left;" vertex="1" parent="1mqRzXisLaytSv6vp5uv-64">
          <mxGeometry width="85" height="30" as="geometry" />
        </mxCell>
        <mxCell id="1mqRzXisLaytSv6vp5uv-66" value="&lt;font style=&quot;font-size: 15px&quot;&gt;0&lt;/font&gt;" style="rounded=0;whiteSpace=wrap;html=1;fontFamily=afterglow regular;fontSource=https%3A%2F%2Ffonts.googleapis.com%2Fcss%3Ffamily%3Dafterglow%2Bregular;fontSize=18;fontColor=#000000;strokeColor=#B3B3B3;" vertex="1" parent="1mqRzXisLaytSv6vp5uv-64">
          <mxGeometry x="30" width="29" height="29" as="geometry" />
        </mxCell>
        <mxCell id="1mqRzXisLaytSv6vp5uv-67" value="$ 400,00" style="text;html=1;strokeColor=none;fillColor=none;align=right;verticalAlign=middle;whiteSpace=wrap;rounded=0;fontFamily=afterglow regular;fontSource=https%3A%2F%2Ffonts.googleapis.com%2Fcss%3Ffamily%3Dafterglow%2Bregular;fontSize=18;fontColor=#000000;" vertex="1" parent="hxEShJzOfcFDKrOyH3e2-1">
          <mxGeometry x="842" y="570" width="90" height="30" as="geometry" />
        </mxCell>
        <mxCell id="1mqRzXisLaytSv6vp5uv-72" value="" style="group" vertex="1" connectable="0" parent="hxEShJzOfcFDKrOyH3e2-1">
          <mxGeometry x="732" y="609" width="85" height="30" as="geometry" />
        </mxCell>
        <mxCell id="1mqRzXisLaytSv6vp5uv-73" value="&amp;nbsp; +&amp;nbsp; &amp;nbsp; &amp;nbsp; &amp;nbsp; &amp;nbsp; &amp;nbsp;-" style="rounded=1;whiteSpace=wrap;html=1;fontFamily=afterglow regular;fontSource=https%3A%2F%2Ffonts.googleapis.com%2Fcss%3Ffamily%3Dafterglow%2Bregular;fontSize=18;fontColor=#000000;strokeColor=#B3B3B3;align=left;" vertex="1" parent="1mqRzXisLaytSv6vp5uv-72">
          <mxGeometry width="85" height="30" as="geometry" />
        </mxCell>
        <mxCell id="1mqRzXisLaytSv6vp5uv-74" value="&lt;font style=&quot;font-size: 15px&quot;&gt;0&lt;/font&gt;" style="rounded=0;whiteSpace=wrap;html=1;fontFamily=afterglow regular;fontSource=https%3A%2F%2Ffonts.googleapis.com%2Fcss%3Ffamily%3Dafterglow%2Bregular;fontSize=18;fontColor=#000000;strokeColor=#B3B3B3;" vertex="1" parent="1mqRzXisLaytSv6vp5uv-72">
          <mxGeometry x="30" width="29" height="29" as="geometry" />
        </mxCell>
        <mxCell id="1mqRzXisLaytSv6vp5uv-75" value="$ 400,00" style="text;html=1;strokeColor=none;fillColor=none;align=right;verticalAlign=middle;whiteSpace=wrap;rounded=0;fontFamily=afterglow regular;fontSource=https%3A%2F%2Ffonts.googleapis.com%2Fcss%3Ffamily%3Dafterglow%2Bregular;fontSize=18;fontColor=#000000;" vertex="1" parent="hxEShJzOfcFDKrOyH3e2-1">
          <mxGeometry x="842" y="608" width="90" height="30" as="geometry" />
        </mxCell>
      </root>
    </mxGraphModel>
  </diagram>
</mxfile>
